<?xml version="1.0" encoding="UTF-8"?>
<svg width="560" height="370" viewBox="0 0 560 370" fill="none"
    xmlns="http://www.w3.org/2000/svg">
    <rect width="560" height="370" rx="12" fill="#F7F9FF"/>

    <!-- Background Elements -->
    <circle cx="280" cy="185" r="140" fill="#EDF2FF" />
    <path d="M140 150C140 116.863 166.863 90 200 90H360C393.137 90 420 116.863 420 150V220C420 253.137 393.137 280 360 280H200C166.863 280 140 253.137 140 220V150Z" fill="#E5EEFF"/>

    <!-- Team Figures -->
    <g transform="translate(180, 110)">
        <!-- Person 1 - Developer -->
        <rect x="10" y="50" width="70" height="120" rx="10" fill="#3162FE" opacity="0.9"/>
        <circle cx="45" cy="30" r="25" fill="#3162FE" opacity="0.9"/>

        <!-- Laptop -->
        <rect x="20" y="90" width="50" height="40" rx="5" fill="#FFFFFF"/>
        <rect x="35" y="135" width="20" height="5" rx="2" fill="#FFFFFF"/>
    </g>

    <g transform="translate(270, 130)">
        <!-- Person 2 - Designer -->
        <rect x="10" y="50" width="70" height="100" rx="10" fill="#092068" opacity="0.8"/>
        <circle cx="45" cy="30" r="25" fill="#092068" opacity="0.8"/>

        <!-- Design Tool -->
        <rect x="5" y="80" width="80" height="50" rx="5" fill="#FFFFFF"/>
        <circle cx="30" cy="105" r="10" fill="#3162FE" opacity="0.5"/>
        <circle cx="60" cy="105" r="10" fill="#092068" opacity="0.5"/>
    </g>

    <!-- Connection Lines -->
    <path d="M250 160C270 170 290 170 310 160" stroke="#3162FE" stroke-width="3" stroke-dasharray="5 5"/>

    <!-- Abstract Code Elements -->
    <rect x="150" y="270" width="60" height="8" rx="4" fill="#3162FE" opacity="0.6"/>
    <rect x="150" y="285" width="40" height="8" rx="4" fill="#3162FE" opacity="0.4"/>
    <rect x="150" y="300" width="50" height="8" rx="4" fill="#3162FE" opacity="0.6"/>

    <!-- Abstract Design Elements -->
    <circle cx="360" cy="280" r="15" fill="#092068" opacity="0.3"/>
    <circle cx="390" cy="280" r="10" fill="#3162FE" opacity="0.3"/>
    <circle cx="410" cy="280" r="5" fill="#092068" opacity="0.3"/>

    <!-- Tech Icons -->
    <rect x="340" y="240" width="70" height="20" rx="5" fill="#3162FE" opacity="0.2"/>
    <rect x="340" y="265" width="50" height="20" rx="5" fill="#3162FE" opacity="0.2"/>
</svg> 