<?xml version="1.0" encoding="UTF-8" standalone="no"?>
<!DOCTYPE svg PUBLIC "-//W3C//DTD SVG 1.1//EN" "http://www.w3.org/Graphics/SVG/1.1/DTD/svg11.dtd">
<svg width="100%" height="100%" viewBox="0 0 764 764" version="1.1" xmlns="http://www.w3.org/2000/svg" xmlns:xlink="http://www.w3.org/1999/xlink" xml:space="preserve" xmlns:serif="http://www.serif.com/" style="fill-rule:evenodd;clip-rule:evenodd;stroke-linejoin:round;stroke-miterlimit:2;">
    <g id="c02" transform="matrix(1,0,0,1,-920,-2834)">
        <g id="Ellipse_3" transform="matrix(1,0,0,1,920,2834)">
            <circle cx="382" cy="382" r="382" style="fill:rgb(72,77,255);fill-opacity:0.1;"/>
        </g>
        <g transform="matrix(0.369945,0,0,0.369945,1112.59,3031.32)">
            <path d="M499.251,682.829L441.229,682.829L402.099,643.699C397.3,638.902 390.786,636.204 384,636.204C369.956,636.204 358.399,647.761 358.399,661.805C358.399,668.593 361.1,675.111 365.901,679.91L368.819,682.829L256,682.829C115.226,682.829 0,569.754 0,431.59C0,301.734 98.125,197.03 230.4,180.339C281.6,79.834 388.224,12.8 512,12.8C669.85,12.8 797.85,121.677 827.725,264.038C934.4,272.41 1024,364.544 1024,473.382C1024,590.669 930.125,682.829 810.624,682.829L571.661,682.829L647.59,606.899C652.388,602.1 655.085,595.586 655.085,588.8C655.085,574.756 643.529,563.199 629.485,563.199C622.696,563.199 616.179,565.9 611.379,570.701L499.251,682.829Z" style="fill:rgb(72,77,255);fill-opacity:0.3;fill-rule:nonzero;"/>
            <path d="M472.794,711.846L404.659,643.699C399.859,638.899 393.342,636.2 386.554,636.2C372.507,636.2 360.948,647.758 360.948,661.805C360.948,668.593 363.648,675.11 368.448,679.91L454.451,765.901C461.509,772.964 472.082,775.28 481.446,771.814C485.082,770.598 488.512,768.538 491.405,765.632L650.138,606.912C654.942,602.111 657.644,595.591 657.644,588.8C657.644,574.753 646.085,563.195 632.038,563.195C625.253,563.195 618.739,565.892 613.939,570.688L472.794,711.859L472.794,711.846ZM758.067,425.6L788.659,427.891L788.659,743.296C788.646,859.904 543.949,985.6 515.917,985.6C485.338,985.6 243.2,859.891 243.2,743.309L243.2,427.904L276.339,425.613C276.339,425.613 314.573,423.322 383.386,402.752C452.198,379.904 498.074,354.752 498.074,354.752L515.942,345.6L536.333,354.739C536.333,354.739 579.661,379.891 651.021,402.739C717.299,425.6 758.08,425.6 758.08,425.6L758.067,425.6Z" style="fill:rgb(72,77,255);fill-rule:nonzero;"/>
        </g>
    </g>
</svg>
