<?xml version="1.0" encoding="UTF-8" standalone="no"?>
<!DOCTYPE svg PUBLIC "-//W3C//DTD SVG 1.1//EN" "http://www.w3.org/Graphics/SVG/1.1/DTD/svg11.dtd">
<svg width="100%" height="100%" viewBox="0 0 556 99" version="1.1" xmlns="http://www.w3.org/2000/svg" xmlns:xlink="http://www.w3.org/1999/xlink" xml:space="preserve" xmlns:serif="http://www.serif.com/" style="fill-rule:evenodd;clip-rule:evenodd;stroke-linejoin:round;stroke-miterlimit:2;">
    <g transform="matrix(1,0,0,1,-126.725,-251.031)">
        <path d="M299.645,256.467L318.078,256.467L355.186,321.224L355.186,256.467L370.95,256.467L370.95,342.567L352.033,342.567L315.41,279.629L315.41,342.567L299.645,342.567L299.645,256.467ZM412.317,344.022C405.93,344.022 400.311,342.648 395.461,339.899C390.691,337.069 386.972,333.108 384.304,328.015C381.717,322.922 380.424,316.979 380.424,310.188C380.424,303.397 381.717,297.455 384.304,292.362C386.972,287.269 390.691,283.348 395.461,280.599C400.311,277.77 405.93,276.355 412.317,276.355C418.623,276.355 424.161,277.77 428.931,280.599C433.781,283.348 437.5,287.269 440.087,292.362C442.755,297.455 444.089,303.397 444.089,310.188C444.089,316.979 442.755,322.922 440.087,328.015C437.5,333.108 433.781,337.069 428.931,339.899C424.161,342.648 418.623,344.022 412.317,344.022ZM412.317,331.41C417.329,331.41 421.21,329.551 423.959,325.832C426.707,322.113 428.082,316.899 428.082,310.188C428.082,303.478 426.667,298.264 423.837,294.545C421.089,290.826 417.248,288.967 412.317,288.967C407.304,288.967 403.424,290.826 400.675,294.545C397.926,298.264 396.552,303.478 396.552,310.188C396.552,316.899 397.926,322.113 400.675,325.832C403.424,329.551 407.304,331.41 412.317,331.41ZM480.298,344.022C473.911,344.022 468.292,342.648 463.442,339.899C458.672,337.069 454.953,333.108 452.285,328.015C449.698,322.922 448.404,316.979 448.404,310.188C448.404,303.397 449.698,297.455 452.285,292.362C454.953,287.269 458.672,283.348 463.442,280.599C468.292,277.77 473.911,276.355 480.298,276.355C486.604,276.355 492.142,277.77 496.911,280.599C501.762,283.348 505.481,287.269 508.068,292.362C510.736,297.455 512.07,303.397 512.07,310.188C512.07,316.979 510.736,322.922 508.068,328.015C505.481,333.108 501.762,337.069 496.911,339.899C492.142,342.648 486.604,344.022 480.298,344.022ZM480.298,331.41C485.31,331.41 489.191,329.551 491.94,325.832C494.688,322.113 496.063,316.899 496.063,310.188C496.063,303.478 494.648,298.264 491.818,294.545C489.07,290.826 485.229,288.967 480.298,288.967C475.285,288.967 471.405,290.826 468.656,294.545C465.907,298.264 464.533,303.478 464.533,310.188C464.533,316.899 465.907,322.113 468.656,325.832C471.405,329.551 475.285,331.41 480.298,331.41ZM519.784,277.81L533.851,277.81L534.215,288.724C535.751,284.763 538.095,281.731 541.248,279.629C544.401,277.446 547.999,276.355 552.041,276.355C556.73,276.355 560.691,277.527 563.925,279.872C567.159,282.216 569.463,285.49 570.837,289.694C572.293,285.409 574.597,282.135 577.75,279.872C580.983,277.527 584.864,276.355 589.391,276.355C596.182,276.355 601.478,278.497 605.277,282.782C609.077,286.986 610.977,293.049 610.977,300.972L610.977,342.567L595.455,342.567L595.455,304.974C595.455,299.638 594.525,295.636 592.666,292.968C590.887,290.301 588.138,288.967 584.419,288.967C580.7,288.967 577.79,290.422 575.688,293.332C573.586,296.243 572.535,300.285 572.535,305.459L572.535,342.567L558.104,342.567L558.104,305.459C558.104,299.962 557.255,295.838 555.558,293.09C553.86,290.341 551.111,288.967 547.311,288.967C543.593,288.967 540.642,290.422 538.459,293.332C536.357,296.243 535.306,300.285 535.306,305.459L535.306,342.567L519.784,342.567L519.784,277.81ZM640.673,344.022C633.801,344.022 628.304,342.486 624.181,339.414C620.139,336.261 618.118,331.895 618.118,326.317C618.118,320.82 619.815,316.494 623.211,313.341C626.687,310.108 632.023,307.804 639.218,306.429L660.682,302.185C660.682,297.657 659.631,294.222 657.529,291.877C655.428,289.533 652.355,288.36 648.313,288.36C640.956,288.36 636.55,291.715 635.095,298.425L619.209,297.698C620.502,290.907 623.655,285.652 628.668,281.933C633.68,278.214 640.229,276.355 648.313,276.355C657.449,276.355 664.361,278.699 669.05,283.388C673.82,287.996 676.205,294.626 676.205,303.276L676.205,326.802C676.205,328.5 676.488,329.672 677.054,330.319C677.619,330.966 678.549,331.289 679.843,331.289L681.904,331.289L681.904,342.567C680.611,342.89 678.751,343.052 676.326,343.052C672.526,343.052 669.454,342.244 667.11,340.627C664.846,339.01 663.391,336.301 662.744,332.502C661.127,335.978 658.338,338.767 654.377,340.869C650.496,342.971 645.928,344.022 640.673,344.022ZM643.826,332.744C648.919,332.744 653.002,331.249 656.074,328.257C659.146,325.266 660.682,321.305 660.682,316.373L660.682,312.735L643.948,316.131C640.552,316.777 638.086,317.828 636.55,319.284C635.014,320.739 634.246,322.598 634.246,324.862C634.246,327.368 635.055,329.308 636.671,330.683C638.369,332.057 640.754,332.744 643.826,332.744Z" style="fill-rule:nonzero;"/>
    </g>
    <g transform="matrix(1,0,0,1,-126.725,-251.031)">
        <circle cx="207.993" cy="300.25" r="49.219" style="fill:rgb(100,27,193);"/>
    </g>
    <g transform="matrix(1,0,0,1,-126.725,-251.031)">
        <circle cx="175.944" cy="300.25" r="49.219" style="fill:url(#_Linear1);"/>
    </g>
    <defs>
        <linearGradient id="_Linear1" x1="0" y1="0" x2="1" y2="0" gradientUnits="userSpaceOnUse" gradientTransform="matrix(6.02759e-15,98.438,-98.438,6.02759e-15,175.944,251.031)"><stop offset="0" style="stop-color:rgb(255,77,109);stop-opacity:1"/><stop offset="1" style="stop-color:rgb(255,77,109);stop-opacity:0"/></linearGradient>
    </defs>
</svg>
