<svg width="156" height="39" viewBox="0 0 156 39" fill="none" xmlns="http://www.w3.org/2000/svg">
<path d="M67.3625 10.6562V20.4219C64.8 23.1302 61.7896 24.4844 58.3313 24.4844C54.7896 24.4844 51.7896 23.3125 49.3313 20.9688C46.8833 18.6146 45.6594 15.7656 45.6594 12.4219C45.6594 9.06771 46.8833 6.21354 49.3313 3.85938C51.7896 1.49479 54.7896 0.3125 58.3313 0.3125C61.5708 0.3125 64.399 1.46875 66.8156 3.78125L64.1594 6.375C62.4927 4.64583 60.55 3.78125 58.3313 3.78125C55.925 3.78125 53.8938 4.625 52.2375 6.3125C50.5813 7.98958 49.7531 10.026 49.7531 12.4219C49.7531 14.8073 50.5813 16.8385 52.2375 18.5156C53.8938 20.1927 55.925 21.0312 58.3313 21.0312C60.1646 21.0312 61.8521 20.3698 63.3938 19.0469V14.1094H58.3313V10.6562H67.3625Z" fill="#0C1732"/>
<path d="M85.505 2.90625L83.4269 5.82812C81.781 4.46354 79.8488 3.78125 77.63 3.78125C76.3904 3.78125 75.3852 4.07812 74.6144 4.67188C73.854 5.26562 73.4633 6.04688 73.4425 7.01562C73.4217 7.72396 73.6456 8.30208 74.1144 8.75C74.5831 9.1875 75.1925 9.51562 75.9425 9.73438C76.7029 9.94271 77.5467 10.1302 78.4738 10.2969C79.4008 10.4531 80.3227 10.6719 81.2394 10.9531C82.1665 11.224 83.0102 11.5833 83.7706 12.0312C84.5415 12.4792 85.1665 13.1458 85.6456 14.0312C86.1248 14.9167 86.3644 16 86.3644 17.2812C86.3644 19.4375 85.5258 21.1823 83.8488 22.5156C82.1821 23.849 80.1092 24.5156 77.63 24.5156C74.2758 24.5156 71.4269 23.5104 69.0831 21.5L71.1925 18.5312C71.9425 19.2812 72.8904 19.8906 74.0363 20.3594C75.1925 20.8281 76.3904 21.0625 77.63 21.0625C79.0363 21.0625 80.1821 20.7083 81.0675 20C81.9529 19.2917 82.3956 18.3854 82.3956 17.2812C82.3956 16.3854 82.0727 15.6823 81.4269 15.1719C80.7915 14.6615 79.9946 14.3333 79.0363 14.1875C78.0779 14.0312 77.0415 13.8281 75.9269 13.5781C74.8227 13.3177 73.7915 13.0104 72.8331 12.6562C71.8748 12.3021 71.0727 11.6458 70.4269 10.6875C69.7915 9.72917 69.4738 8.50521 69.4738 7.01562C69.4738 5.03646 70.2602 3.42708 71.8331 2.1875C73.4165 0.9375 75.3488 0.3125 77.63 0.3125C80.6404 0.3125 83.2654 1.17708 85.505 2.90625Z" fill="#0C1732"/>
<path d="M99.6475 19.4531C100.606 18.4948 101.085 17.3438 101.085 16C101.085 14.6562 100.606 13.5052 99.6475 12.5469C98.6892 11.5885 97.5381 11.1094 96.1944 11.1094C94.8506 11.1094 93.6944 11.5885 92.7256 12.5469C91.7673 13.5052 91.2881 14.6562 91.2881 16C91.2881 17.3438 91.7673 18.4948 92.7256 19.4531C93.6944 20.4115 94.8506 20.8906 96.1944 20.8906C97.5381 20.8906 98.6892 20.4115 99.6475 19.4531ZM102.491 9.96875C104.283 11.6042 105.179 13.6146 105.179 16C105.179 18.3854 104.283 20.3958 102.491 22.0312C100.7 23.6667 98.5954 24.4844 96.1788 24.4844C93.7725 24.4844 91.6735 23.6667 89.8819 22.0312C88.0902 20.3958 87.1944 18.3854 87.1944 16C87.1944 13.6146 88.0902 11.6042 89.8819 9.96875C91.6735 8.33333 93.7725 7.51562 96.1788 7.51562C98.5954 7.51562 100.7 8.33333 102.491 9.96875Z" fill="#0C1732"/>
<path d="M117.79 8H121.759V24H117.79V21.5312H117.728C116.748 23.4896 115.201 24.474 113.087 24.4844C111.254 24.4844 109.754 23.849 108.587 22.5781C107.431 21.3073 106.853 19.6667 106.853 17.6562V8H110.821V17.4062C110.821 18.3854 111.155 19.2135 111.821 19.8906C112.498 20.5573 113.316 20.8906 114.274 20.8906C115.254 20.8906 116.082 20.5573 116.759 19.8906C117.446 19.2135 117.79 18.3854 117.79 17.4062V8Z" fill="#0C1732"/>
<path d="M129.776 20.5469H137.307V24H122.901L131.167 11.5156V11.4531H123.636V8H138.011L129.776 20.4844V20.5469Z" fill="#0C1732"/>
<path d="M151.606 24V21.4375H151.575C150.335 23.4688 148.554 24.4844 146.231 24.4844C143.867 24.4844 141.856 23.6719 140.2 22.0469C138.544 20.4219 137.716 18.4062 137.716 16C137.716 13.6146 138.549 11.6042 140.216 9.96875C141.882 8.33333 143.887 7.51562 146.231 7.51562C148.387 7.51562 150.169 8.44271 151.575 10.2969H151.606V8H155.575V24H151.606ZM143.231 12.5469C142.283 13.5052 141.809 14.6562 141.809 16C141.809 17.3438 142.283 18.4948 143.231 19.4531C144.19 20.4115 145.351 20.8906 146.716 20.8906C148.08 20.8906 149.236 20.4115 150.184 19.4531C151.132 18.4948 151.606 17.3438 151.606 16C151.606 14.6562 151.132 13.5052 150.184 12.5469C149.236 11.5885 148.08 11.1094 146.716 11.1094C145.351 11.1094 144.19 11.5885 143.231 12.5469Z" fill="#0C1732"/>
<path d="M84.1358 31.6797H82.2373V37H81.7256V31.6797H79.8311V31.1992H84.1358V31.6797Z" fill="#0C1732"/>
<path d="M87.9458 36.5195H91.4731V37H87.4302V31.1992H91.4731V31.6797H87.9458V33.8555H90.9458V34.3359H87.9458V36.5195Z" fill="#0C1732"/>
<path d="M95.9081 32.3008C95.4107 32.7982 95.162 33.3997 95.162 34.1055C95.162 34.8086 95.4094 35.4089 95.9042 35.9062C96.4016 36.401 97.0019 36.6484 97.705 36.6484C98.4107 36.6484 99.0123 36.3997 99.5097 35.9023L99.8612 36.2656C99.2753 36.8359 98.5579 37.1211 97.7089 37.1211C96.8495 37.1211 96.1217 36.8281 95.5253 36.2422C94.9316 35.6536 94.6347 34.9414 94.6347 34.1055C94.6347 33.2669 94.9316 32.5534 95.5253 31.9648C96.1217 31.3737 96.8495 31.0781 97.7089 31.0781C98.5527 31.0781 99.2727 31.3646 99.8691 31.9375L99.5097 32.2969C99.0019 31.8021 98.4016 31.5534 97.7089 31.5508C97.0058 31.5508 96.4055 31.8008 95.9081 32.3008Z" fill="#0C1732"/>
<path d="M107.867 37.2383L103.902 32.3516V37H103.386V30.9609L107.355 35.8477V31.1914H107.867V37.2383Z" fill="#0C1732"/>
<path d="M112.657 32.3008C112.162 32.7982 111.915 33.3997 111.915 34.1055C111.915 34.8086 112.162 35.4089 112.657 35.9062C113.154 36.401 113.755 36.6484 114.458 36.6484C115.164 36.6484 115.764 36.401 116.259 35.9062C116.756 35.4089 117.005 34.8086 117.005 34.1055C117.005 33.3997 116.756 32.7982 116.259 32.3008C115.764 31.8008 115.164 31.5508 114.458 31.5508C113.755 31.5508 113.154 31.8008 112.657 32.3008ZM112.278 36.2422C111.684 35.6536 111.387 34.9414 111.387 34.1055C111.387 33.2669 111.684 32.5534 112.278 31.9648C112.874 31.3737 113.601 31.0781 114.458 31.0781C115.317 31.0781 116.044 31.3737 116.637 31.9648C117.234 32.5534 117.532 33.2669 117.532 34.1055C117.532 34.9414 117.234 35.6536 116.637 36.2422C116.044 36.8281 115.317 37.1211 114.458 37.1211C113.601 37.1211 112.874 36.8281 112.278 36.2422Z" fill="#0C1732"/>
<path d="M124.846 36.5195V37H121.053V31.1992H121.569V36.5195H124.846Z" fill="#0C1732"/>
<path d="M128.824 32.3008C128.329 32.7982 128.082 33.3997 128.082 34.1055C128.082 34.8086 128.329 35.4089 128.824 35.9062C129.321 36.401 129.922 36.6484 130.625 36.6484C131.33 36.6484 131.931 36.401 132.425 35.9062C132.923 35.4089 133.172 34.8086 133.172 34.1055C133.172 33.3997 132.923 32.7982 132.425 32.3008C131.931 31.8008 131.33 31.5508 130.625 31.5508C129.922 31.5508 129.321 31.8008 128.824 32.3008ZM128.445 36.2422C127.851 35.6536 127.554 34.9414 127.554 34.1055C127.554 33.2669 127.851 32.5534 128.445 31.9648C129.041 31.3737 129.768 31.0781 130.625 31.0781C131.484 31.0781 132.211 31.3737 132.804 31.9648C133.401 32.5534 133.699 33.2669 133.699 34.1055C133.699 34.9414 133.401 35.6536 132.804 36.2422C132.211 36.8281 131.484 37.1211 130.625 37.1211C129.768 37.1211 129.041 36.8281 128.445 36.2422Z" fill="#0C1732"/>
<path d="M142.423 33.8555V36.0977C142.139 36.418 141.795 36.6693 141.392 36.8516C140.991 37.0312 140.561 37.1211 140.103 37.1211C139.243 37.1211 138.515 36.8281 137.919 36.2422C137.325 35.6536 137.028 34.9414 137.028 34.1055C137.028 33.2669 137.325 32.5534 137.919 31.9648C138.515 31.3737 139.243 31.0781 140.103 31.0781C140.946 31.0781 141.666 31.3646 142.263 31.9375L141.903 32.2969C141.396 31.8021 140.795 31.5534 140.103 31.5508C139.4 31.5508 138.799 31.8008 138.302 32.3008C137.804 32.7982 137.556 33.3997 137.556 34.1055C137.556 34.8086 137.803 35.4089 138.298 35.9062C138.795 36.401 139.396 36.6484 140.099 36.6484C140.804 36.6484 141.409 36.3971 141.911 35.8945V34.3359H140.103V33.8555H142.423Z" fill="#0C1732"/>
<path d="M146.038 37V31.1992H146.553V37H146.038Z" fill="#0C1732"/>
<path d="M152.344 30.9609L154.84 37H154.305L153.766 35.6953H150.918L150.383 37H149.848L152.344 30.9609ZM152.344 32.2305L151.113 35.2148H153.566L152.344 32.2305Z" fill="#0C1732"/>
<path d="M8.00998 0L0.697723 12.6514H15.5544L22.8666 0H8.00998Z" fill="#0D39C0"/>
<path d="M24.1434 25.4189L16.715 38.1864H31.6877L39 25.4189H24.1434Z" fill="#3162FE"/>
<path d="M31.5717 12.6514L39 25.4188H24.1434L16.715 12.6514H31.5717Z" fill="#092068"/>
<path d="M15.5544 12.6514L22.9827 25.4188H8.00997L0.697723 12.6514H15.5544Z" fill="#1A91FF"/>
</svg>
