<svg xmlns="http://www.w3.org/2000/svg" width="122" height="43" viewBox="0 0 122 43" fill="none"><path d="M3.56547 41.8182H0.916382V28.0372H3.31184L3.59365 30.1509C4.02578 29.3618 4.64578 28.7512 5.45366 28.3191C6.28032 27.8682 7.18214 27.6427 8.15911 27.6427C9.96275 27.6427 11.2967 28.1594 12.1609 29.1927C13.0252 30.226 13.4573 31.6257 13.4573 33.3918V41.8182H10.8082V33.9836C10.8082 32.5933 10.5076 31.5975 9.90638 30.9963C9.30517 30.3763 8.49729 30.0663 7.48275 30.0663C6.24275 30.0663 5.27517 30.4703 4.58002 31.2782C3.90366 32.086 3.56547 33.1663 3.56547 34.5191V41.8182Z" fill="#686788"></path><path d="M15.661 34.9136C15.661 33.5045 15.971 32.2551 16.591 31.1654C17.211 30.0757 18.0564 29.2209 19.1273 28.6009C20.217 27.9809 21.457 27.6709 22.8473 27.6709C24.2376 27.6709 25.4683 27.9809 26.5392 28.6009C27.6101 29.2209 28.4555 30.0757 29.0755 31.1654C29.6955 32.2551 30.0055 33.5045 30.0055 34.9136C30.0055 36.3227 29.6955 37.5721 29.0755 38.6618C28.4555 39.7515 27.6101 40.6063 26.5392 41.2263C25.4683 41.8463 24.2376 42.1563 22.8473 42.1563C21.457 42.1563 20.217 41.8463 19.1273 41.2263C18.0564 40.6063 17.211 39.7515 16.591 38.6618C15.971 37.5721 15.661 36.3227 15.661 34.9136ZM18.3382 34.9136C18.3382 35.8718 18.5261 36.7172 18.9019 37.45C19.2964 38.1827 19.8319 38.7557 20.5082 39.1691C21.1846 39.5824 21.9643 39.7891 22.8473 39.7891C23.7304 39.7891 24.5101 39.5824 25.1864 39.1691C25.8628 38.7557 26.3889 38.1827 26.7646 37.45C27.1592 36.7172 27.3564 35.8718 27.3564 34.9136C27.3564 33.9366 27.1592 33.0912 26.7646 32.3772C26.3889 31.6445 25.8628 31.0715 25.1864 30.6582C24.5101 30.2448 23.7304 30.0382 22.8473 30.0382C21.9643 30.0382 21.1846 30.2448 20.5082 30.6582C19.8319 31.0715 19.2964 31.6445 18.9019 32.3772C18.5261 33.0912 18.3382 33.9366 18.3382 34.9136Z" fill="#686788"></path><path d="M31.4725 34.9136C31.4725 33.5045 31.7825 32.2551 32.4025 31.1654C33.0225 30.0757 33.868 29.2209 34.9389 28.6009C36.0286 27.9809 37.2686 27.6709 38.6589 27.6709C40.0492 27.6709 41.2798 27.9809 42.3507 28.6009C43.4216 29.2209 44.2671 30.0757 44.8871 31.1654C45.5071 32.2551 45.8171 33.5045 45.8171 34.9136C45.8171 36.3227 45.5071 37.5721 44.8871 38.6618C44.2671 39.7515 43.4216 40.6063 42.3507 41.2263C41.2798 41.8463 40.0492 42.1563 38.6589 42.1563C37.2686 42.1563 36.0286 41.8463 34.9389 41.2263C33.868 40.6063 33.0225 39.7515 32.4025 38.6618C31.7825 37.5721 31.4725 36.3227 31.4725 34.9136ZM34.1498 34.9136C34.1498 35.8718 34.3377 36.7172 34.7134 37.45C35.108 38.1827 35.6434 38.7557 36.3198 39.1691C36.9962 39.5824 37.7759 39.7891 38.6589 39.7891C39.5419 39.7891 40.3216 39.5824 40.998 39.1691C41.6743 38.7557 42.2004 38.1827 42.5762 37.45C42.9707 36.7172 43.168 35.8718 43.168 34.9136C43.168 33.9366 42.9707 33.0912 42.5762 32.3772C42.2004 31.6445 41.6743 31.0715 40.998 30.6582C40.3216 30.2448 39.5419 30.0382 38.6589 30.0382C37.7759 30.0382 36.9962 30.2448 36.3198 30.6582C35.6434 31.0715 35.108 31.6445 34.7134 32.3772C34.3377 33.0912 34.1498 33.9366 34.1498 34.9136Z" fill="#686788"></path><path d="M50.835 41.8182H48.1859V28.0372H50.5532L50.9195 30.5736L50.5813 30.3482C50.8632 29.5779 51.3798 28.9391 52.1313 28.4318C52.9016 27.9057 53.8316 27.6427 54.9213 27.6427C56.1425 27.6427 57.1571 27.9715 57.965 28.6291C58.7729 29.2866 59.2989 30.1603 59.5432 31.25H59.0641C59.2519 30.1603 59.7686 29.2866 60.6141 28.6291C61.4595 27.9715 62.5022 27.6427 63.7422 27.6427C65.3204 27.6427 66.5604 28.103 67.4622 29.0236C68.3641 29.9442 68.815 31.203 68.815 32.8V41.8182H66.2222V33.4482C66.2222 32.3585 65.9404 31.5224 65.3768 30.94C64.8319 30.3388 64.0898 30.0382 63.1504 30.0382C62.4929 30.0382 61.9104 30.1885 61.4032 30.4891C60.9147 30.7709 60.5295 31.1842 60.2477 31.7291C59.9659 32.2739 59.825 32.9127 59.825 33.6454V41.8182H57.2041V33.42C57.2041 32.3303 56.9316 31.5036 56.3868 30.94C55.8419 30.3575 55.0998 30.0663 54.1604 30.0663C53.5029 30.0663 52.9204 30.2166 52.4132 30.5172C51.9247 30.7991 51.5395 31.2124 51.2577 31.7572C50.9759 32.2833 50.835 32.9127 50.835 33.6454V41.8182Z" fill="#686788"></path><path d="M75.9536 42.1563C74.4881 42.1563 73.3327 41.7712 72.4872 41.0009C71.6605 40.2306 71.2472 39.2254 71.2472 37.9854C71.2472 36.7266 71.6981 35.7215 72.5999 34.97C73.5017 34.1997 74.7605 33.7488 76.3763 33.6172L80.7163 33.2791V32.8845C80.7163 32.1142 80.5754 31.5036 80.2936 31.0527C80.0117 30.583 79.6266 30.2542 79.1381 30.0663C78.6496 29.8597 78.0954 29.7563 77.4754 29.7563C76.3669 29.7563 75.5027 29.9912 74.8827 30.4609C74.2814 30.9118 73.9808 31.56 73.9808 32.4054H71.6699C71.6699 31.4472 71.9142 30.6112 72.4026 29.8972C72.8911 29.1833 73.5769 28.6291 74.4599 28.2345C75.3617 27.84 76.4045 27.6427 77.5881 27.6427C78.7342 27.6427 79.7299 27.8494 80.5754 28.2627C81.4396 28.6572 82.1066 29.2679 82.5763 30.0945C83.0648 30.9024 83.309 31.9263 83.309 33.1663V41.8182H81.0545L80.7727 39.5918C80.4157 40.3809 79.7957 41.0103 78.9127 41.48C78.0484 41.9309 77.062 42.1563 75.9536 42.1563ZM76.7145 40.0991C77.9733 40.0991 78.9596 39.7233 79.6736 38.9718C80.3875 38.2015 80.7445 37.1682 80.7445 35.8718V35.1391L77.2217 35.4209C76.0569 35.5336 75.2114 35.806 74.6854 36.2382C74.1781 36.6703 73.9245 37.2245 73.9245 37.9009C73.9245 38.6336 74.1687 39.1879 74.6572 39.5636C75.1645 39.9206 75.8502 40.0991 76.7145 40.0991Z" fill="#686788"></path><path d="M118.493 6.21755C113.048 2.80342 105.236 8.17969 102.011 11.2946L100.245 12.8398C93.3575 18.8734 87.7115 18.5177 85.8229 17.5857L96.9335 29.0275C98.6995 31.4409 102.477 31.2349 104.144 30.8302C114.181 28.2696 119.241 19.5601 120.516 15.5255C122.547 10.1394 120.013 7.07598 118.493 6.21755Z" fill="url(#paint0_linear_103_1912)"></path><path d="M83.2108 15.4887C87.6845 21.3751 96.4798 16.1754 100.318 12.8398L87.4417 0C80.7606 7.56406 81.8373 13.4775 83.2108 15.4887Z" fill="url(#paint1_linear_103_1912)"></path><defs><linearGradient id="paint0_linear_103_1912" x1="114.631" y1="13.5388" x2="94.249" y2="24.9437" gradientUnits="userSpaceOnUse"><stop stop-color="#686788"></stop><stop offset="1" stop-color="#686788" stop-opacity="0"></stop></linearGradient><linearGradient id="paint1_linear_103_1912" x1="85.1239" y1="18.1744" x2="94.395" y2="7.1373" gradientUnits="userSpaceOnUse"><stop stop-color="#686788"></stop><stop offset="1" stop-color="#686788" stop-opacity="0"></stop></linearGradient></defs></svg>